<svg width="31" height="14" viewBox="0 0 31 14" fill="none" xmlns="http://www.w3.org/2000/svg">
<path opacity="0.35" d="M24.1213 0.000854492H4.089C2.31854 0.000854492 0.883301 1.4361 0.883301 3.20655V10.4173C0.883301 12.1877 2.31854 13.623 4.089 13.623H24.1213C25.8918 13.623 27.327 12.1877 27.327 10.4173V3.20655C27.327 1.4361 25.8918 0.000854492 24.1213 0.000854492Z" fill="#040404"/>
<path opacity="0.4" d="M28.5288 4.40845V9.2164C29.0019 9.01722 29.4057 8.68288 29.6897 8.25526C29.9736 7.82763 30.1251 7.32573 30.125 6.81242C30.1251 6.29911 29.9736 5.79721 29.6897 5.36958C29.4057 4.94196 29.0019 4.60762 28.5288 4.40845" fill="#040404"/>
<path d="M23.3209 2.40485H4.88966C4.00477 2.40485 3.28741 3.1222 3.28741 4.00709V9.61677C3.28741 10.5017 4.00477 11.219 4.88966 11.219H23.3209C24.2058 11.219 24.9232 10.5017 24.9232 9.61677V4.00709C24.9232 3.1222 24.2058 2.40485 23.3209 2.40485Z" fill="#040404"/>
</svg>
