<svg width="21" height="14" viewBox="0 0 21 14" fill="none" xmlns="http://www.w3.org/2000/svg">
<path d="M19.2318 13.2238H18.0298C17.711 13.2238 17.4053 13.0972 17.1799 12.8718C16.9545 12.6463 16.8278 12.3406 16.8278 12.0218V1.60421C16.8278 1.28542 16.9545 0.979692 17.1799 0.754276C17.4053 0.528859 17.711 0.402222 18.0298 0.402222L19.2318 0.402222C19.5506 0.402222 19.8563 0.528859 20.0817 0.754276C20.3071 0.979692 20.4338 1.28542 20.4338 1.60421V12.0218C20.4338 12.3406 20.3071 12.6463 20.0817 12.8718C19.8563 13.0972 19.5506 13.2238 19.2318 13.2238ZM13.6221 13.2238H12.4201C12.1013 13.2238 11.7956 13.0972 11.5702 12.8718C11.3448 12.6463 11.2181 12.3406 11.2181 12.0218V4.40965C11.2181 4.09086 11.3448 3.78513 11.5702 3.55971C11.7956 3.3343 12.1013 3.20766 12.4201 3.20766H13.6221C13.9409 3.20766 14.2466 3.3343 14.4721 3.55971C14.6975 3.78513 14.8241 4.09086 14.8241 4.40965V12.0218C14.8241 12.3404 14.6976 12.646 14.4725 12.8713C14.2473 13.0967 13.9419 13.2235 13.6233 13.2238H13.6221ZM8.01245 13.2238H6.81046C6.49167 13.2238 6.18594 13.0972 5.96053 12.8718C5.73511 12.6463 5.60847 12.3406 5.60847 12.0218V7.21388C5.60847 6.8951 5.73511 6.58937 5.96053 6.36395C6.18594 6.13853 6.49167 6.0119 6.81046 6.0119H8.01245C8.33123 6.0119 8.63696 6.13853 8.86238 6.36395C9.0878 6.58937 9.21443 6.8951 9.21443 7.21388V12.0218C9.21443 12.3406 9.0878 12.6463 8.86238 12.8718C8.63696 13.0972 8.33123 13.2238 8.01245 13.2238ZM2.40397 13.2238H1.20199C0.8832 13.2238 0.57747 13.0972 0.352054 12.8718C0.126638 12.6463 0 12.3406 0 12.0218V9.61786C0 9.29907 0.126638 8.99334 0.352054 8.76792C0.57747 8.54251 0.8832 8.41587 1.20199 8.41587H2.40397C2.72276 8.41587 3.02849 8.54251 3.25391 8.76792C3.47932 8.99334 3.60596 9.29907 3.60596 9.61786V12.0218C3.60596 12.3406 3.47932 12.6463 3.25391 12.8718C3.02849 13.0972 2.72276 13.2238 2.40397 13.2238Z" fill="#040404"/>
</svg>
