<svg width="23" height="22" viewBox="0 0 23 22" fill="none" xmlns="http://www.w3.org/2000/svg">
<path d="M21.0939 11C21.0939 5.47715 16.5957 1 11.0469 1C5.49817 1 1 5.47715 1 11C1 16.5228 5.49817 21 11.0469 21C16.5957 21 21.0939 16.5228 21.0939 11Z" stroke="#484C52" stroke-width="2"/>
<path d="M11.4502 7.29796L14.3838 6.32465C15.2742 6.02924 15.7195 5.88153 15.9545 6.11544C16.1895 6.34935 16.0411 6.79247 15.7442 7.67871L14.7663 10.5986C14.2606 12.1088 14.0077 12.8639 13.4636 13.4054C12.9196 13.9469 12.161 14.1986 10.6437 14.702L7.71007 15.6753C6.81967 15.9708 6.37447 16.1185 6.13946 15.8846C5.90445 15.6507 6.05285 15.2075 6.34965 14.3213L7.32753 11.4014C7.83329 9.8912 8.08618 9.1361 8.63023 8.59457C9.1743 8.05306 9.93295 7.80136 11.4502 7.29796Z" stroke="#484C52" stroke-width="1.5" stroke-linecap="round" stroke-linejoin="round"/>
<path d="M11.047 11L11.0406 11.0064" stroke="#484C52" stroke-width="2.5" stroke-linecap="round" stroke-linejoin="round"/>
</svg>
