<svg width="36" height="36" viewBox="0 0 36 36" fill="none" xmlns="http://www.w3.org/2000/svg">
<path d="M31.4759 17.2709C31.4811 19.1957 31.0193 21.0944 30.1283 22.8125C29.0719 24.8713 27.4478 26.603 25.4379 27.8135C23.4281 29.0241 21.1119 29.6658 18.7488 29.6667C16.7726 29.6717 14.823 29.222 13.059 28.3542L4.52439 31.125L7.36927 22.8125C6.47827 21.0944 6.01655 19.1957 6.0217 17.2709C6.02261 14.9693 6.68143 12.7134 7.92435 10.7558C9.16728 8.79831 10.9452 7.21649 13.059 6.18754C14.823 5.31973 16.7726 4.87002 18.7488 4.87504H19.4975C22.6184 5.04274 25.5661 6.32573 27.7763 8.47837C29.9865 10.631 31.3037 13.502 31.4759 16.5417V17.2709Z" fill="#840287" stroke="#840287" stroke-linecap="round" stroke-linejoin="round"/>
<path d="M13.3438 16.8745L20.4934 9.75855C20.8517 9.40194 21.4525 9.74153 21.3317 10.2324L19.9394 15.8907C19.8736 16.1584 20.0367 16.4289 20.3042 16.4954L23.4811 17.2859C23.859 17.3799 23.9891 17.8508 23.7131 18.1255L16.5635 25.2414C16.2052 25.5981 15.6045 25.2585 15.7252 24.7676L17.1175 19.1093C17.1834 18.8416 17.0202 18.5711 16.7527 18.5046L13.5758 17.7141C13.1979 17.6201 13.0678 17.1492 13.3438 16.8745Z" fill="white"/>
</svg>
