<svg width="58" height="58" viewBox="0 0 58 58" fill="none" xmlns="http://www.w3.org/2000/svg">
<g filter="url(#filter0_d_3_1045)">
<circle cx="21.5" cy="21.5" r="21.5" transform="matrix(-1 0 0 1 50.5 6.5)" fill="#407BFF"/>
<circle cx="21.5" cy="21.5" r="21" transform="matrix(-1 0 0 1 50.5 6.5)" stroke="#407BFF"/>
</g>
<path d="M22.9923 27.9158L31.3406 18.0079C31.6748 17.6112 32.3175 17.9231 32.2126 18.4311L30.5373 26.5503C30.4848 26.8046 30.6357 27.0568 30.8847 27.1307L34.7676 28.2827C35.1131 28.3852 35.24 28.8086 35.0077 29.0842L26.6594 38.9921C26.3252 39.3888 25.6825 39.0769 25.7874 38.5689L27.4627 30.4498C27.5152 30.1955 27.3643 29.9433 27.1153 29.8694L23.2324 28.7173C22.8869 28.6148 22.76 28.1914 22.9923 27.9158Z" fill="white"/>
<defs>
<filter id="filter0_d_3_1045" x="0.5" y="0.5" width="57" height="57" filterUnits="userSpaceOnUse" color-interpolation-filters="sRGB">
<feFlood flood-opacity="0" result="BackgroundImageFix"/>
<feColorMatrix in="SourceAlpha" type="matrix" values="0 0 0 0 0 0 0 0 0 0 0 0 0 0 0 0 0 0 127 0" result="hardAlpha"/>
<feOffset dy="1"/>
<feGaussianBlur stdDeviation="3.5"/>
<feColorMatrix type="matrix" values="0 0 0 0 0 0 0 0 0 0 0 0 0 0 0 0 0 0 0.16 0"/>
<feBlend mode="normal" in2="BackgroundImageFix" result="effect1_dropShadow_3_1045"/>
<feBlend mode="normal" in="SourceGraphic" in2="effect1_dropShadow_3_1045" result="shape"/>
</filter>
</defs>
</svg>
