<svg width="10" height="21" viewBox="0 0 10 21" fill="none" xmlns="http://www.w3.org/2000/svg">
<path d="M9.99662 10.028C9.99727 10.3617 9.88108 10.685 9.66822 10.9419L2.52905 19.5088C2.2867 19.8004 1.93843 19.9838 1.56087 20.0186C1.18332 20.0534 0.807395 19.9368 0.515808 19.6945C0.22422 19.4521 0.0408521 19.1038 0.0060419 18.7263C-0.0287683 18.3487 0.0878306 17.9728 0.330189 17.6812L6.72688 10.028L0.558644 2.37485C0.440039 2.2288 0.351468 2.06075 0.298022 1.88036C0.244576 1.69997 0.227308 1.51079 0.24721 1.3237C0.267113 1.13662 0.323794 0.955307 0.413995 0.790197C0.504197 0.625087 0.626141 0.479432 0.772818 0.361603C0.91963 0.230842 1.09186 0.131809 1.27873 0.0707085C1.4656 0.00960773 1.66307 -0.0122421 1.85877 0.00652398C2.05447 0.0252901 2.24419 0.084268 2.41604 0.179766C2.58789 0.275264 2.73817 0.405225 2.85745 0.561502L9.75389 9.1285C9.93311 9.39277 10.0186 9.70949 9.99662 10.028Z" fill="#636366" fill-opacity="0.73"/>
<path d="M9.99662 10.028C9.99727 10.3617 9.88108 10.685 9.66822 10.9419L2.52905 19.5088C2.2867 19.8004 1.93843 19.9838 1.56087 20.0186C1.18332 20.0534 0.807395 19.9368 0.515808 19.6945C0.22422 19.4521 0.0408521 19.1038 0.0060419 18.7263C-0.0287683 18.3487 0.0878306 17.9728 0.330189 17.6812L6.72688 10.028L0.558644 2.37485C0.440039 2.2288 0.351468 2.06075 0.298022 1.88036C0.244576 1.69997 0.227308 1.51079 0.24721 1.3237C0.267113 1.13662 0.323794 0.955307 0.413995 0.790197C0.504197 0.625087 0.626141 0.479432 0.772818 0.361603C0.91963 0.230842 1.09186 0.131809 1.27873 0.0707085C1.4656 0.00960773 1.66307 -0.0122421 1.85877 0.00652398C2.05447 0.0252901 2.24419 0.084268 2.41604 0.179766C2.58789 0.275264 2.73817 0.405225 2.85745 0.561502L9.75389 9.1285C9.93311 9.39277 10.0186 9.70949 9.99662 10.028Z" fill="#908A94"/>
</svg>
