<svg width="19" height="14" viewBox="0 0 19 14" fill="none" xmlns="http://www.w3.org/2000/svg">
<path d="M9.65542 13.1793C9.60597 13.1791 9.55705 13.1691 9.51147 13.1499C9.46589 13.1307 9.42454 13.1027 9.38978 13.0676L6.98581 10.6444C6.94917 10.6084 6.92028 10.5653 6.90093 10.5177C6.88158 10.4701 6.87218 10.4191 6.87331 10.3677C6.87444 10.3164 6.88607 10.2658 6.90748 10.2191C6.9289 10.1724 6.95964 10.1306 6.99783 10.0963C7.74023 9.4682 8.68119 9.12357 9.65362 9.12357C10.626 9.12357 11.567 9.4682 12.3094 10.0963C12.3469 10.1309 12.377 10.1729 12.3976 10.2196C12.4183 10.2663 12.4292 10.3168 12.4296 10.3679C12.4305 10.4192 12.4209 10.4702 12.4015 10.5177C12.3821 10.5653 12.3532 10.6083 12.3166 10.6444L9.91265 13.0676C9.84488 13.1371 9.75251 13.1773 9.65542 13.1793V13.1793ZM13.872 8.92672C13.7764 8.9267 13.6843 8.89016 13.6148 8.82455C12.5311 7.8414 11.1204 7.29679 9.65722 7.29679C8.19407 7.29679 6.7833 7.8414 5.69968 8.82455C5.6301 8.89016 5.53809 8.9267 5.44246 8.92672C5.39333 8.92694 5.34464 8.91739 5.29924 8.89861C5.25384 8.87983 5.21263 8.8522 5.17802 8.81734L3.79093 7.41462C3.75433 7.3786 3.72527 7.33566 3.70543 7.2883C3.68559 7.24094 3.67537 7.19011 3.67537 7.13876C3.67537 7.08742 3.68559 7.03658 3.70543 6.98922C3.72527 6.94186 3.75433 6.89892 3.79093 6.86291C5.38304 5.38149 7.47709 4.55795 9.65182 4.55795C11.8265 4.55795 13.9206 5.38149 15.5127 6.86291C15.5501 6.89846 15.58 6.94113 15.6006 6.9884C15.6212 7.03567 15.6322 7.08659 15.6329 7.13816C15.6332 7.24162 15.5926 7.34099 15.5199 7.41462L14.1352 8.81734C14.1007 8.85201 14.0597 8.87952 14.0145 8.89829C13.9693 8.91706 13.9209 8.92672 13.872 8.92672V8.92672ZM17.0633 5.69938C17.0156 5.69982 16.9683 5.6908 16.9242 5.67285C16.88 5.6549 16.8399 5.62837 16.806 5.59481C14.8756 3.75933 12.3137 2.73579 9.65001 2.73579C6.98628 2.73579 4.42439 3.75933 2.49398 5.59481C2.46015 5.62837 2.41999 5.6549 2.37584 5.67285C2.33169 5.6908 2.28442 5.69982 2.23676 5.69938C2.18763 5.69961 2.13894 5.69006 2.09354 5.67128C2.04814 5.6525 2.00694 5.62487 1.97232 5.59L0.588834 4.18849C0.552782 4.15253 0.524178 4.10982 0.504661 4.06279C0.485144 4.01576 0.475098 3.96535 0.475098 3.91443C0.475098 3.86352 0.485144 3.8131 0.504661 3.76607C0.524178 3.71905 0.552782 3.67633 0.588834 3.64038C3.02771 1.30417 6.27454 0 9.65182 0C13.0291 0 16.2759 1.30417 18.7148 3.64038C18.7519 3.67592 18.7816 3.71841 18.8022 3.76544C18.8228 3.81246 18.834 3.86309 18.835 3.91443C18.8355 3.96553 18.8257 4.0162 18.8063 4.06347C18.7869 4.11074 18.7582 4.15365 18.722 4.18969L17.3313 5.59C17.2963 5.62536 17.2545 5.65328 17.2085 5.67208C17.1624 5.69087 17.113 5.70016 17.0633 5.69938Z" fill="#040404"/>
</svg>
